<mxfile host="app.diagrams.net" modified="2022-01-22T12:17:40.260Z" agent="5.0 (Macintosh; Intel Mac OS X 10_15_7) AppleWebKit/537.36 (KHTML, like Gecko) Chrome/97.0.4692.71 Safari/537.36" etag="YsS3GD-uRmq-saHEI8Rl" version="16.4.5" type="github">
  <diagram id="fWp90SaGOxRS0m4rPZ-F" name="Page-1">
    <mxGraphModel dx="992" dy="539" grid="1" gridSize="10" guides="1" tooltips="1" connect="1" arrows="1" fold="1" page="1" pageScale="1" pageWidth="827" pageHeight="1169" math="0" shadow="0">
      <root>
        <mxCell id="0" />
        <mxCell id="1" parent="0" />
        <mxCell id="pHxcztYA1CA2AjdNEvCU-6" value="" style="edgeStyle=orthogonalEdgeStyle;rounded=0;orthogonalLoop=1;jettySize=auto;html=1;strokeColor=default;strokeWidth=1;startArrow=none;startFill=0;" edge="1" parent="1" source="pHxcztYA1CA2AjdNEvCU-2" target="pHxcztYA1CA2AjdNEvCU-5">
          <mxGeometry relative="1" as="geometry">
            <Array as="points">
              <mxPoint x="420" y="750" />
              <mxPoint x="420" y="750" />
            </Array>
          </mxGeometry>
        </mxCell>
        <mxCell id="pHxcztYA1CA2AjdNEvCU-24" style="edgeStyle=orthogonalEdgeStyle;rounded=0;orthogonalLoop=1;jettySize=auto;html=1;exitX=0.5;exitY=1;exitDx=0;exitDy=0;entryX=0.464;entryY=0.015;entryDx=0;entryDy=0;entryPerimeter=0;startArrow=classic;startFill=1;strokeColor=default;strokeWidth=1;" edge="1" parent="1" source="pHxcztYA1CA2AjdNEvCU-2" target="pHxcztYA1CA2AjdNEvCU-23">
          <mxGeometry relative="1" as="geometry" />
        </mxCell>
        <mxCell id="pHxcztYA1CA2AjdNEvCU-2" value="DataRepository" style="ellipse;whiteSpace=wrap;html=1;" vertex="1" parent="1">
          <mxGeometry x="350" y="770" width="120" height="80" as="geometry" />
        </mxCell>
        <mxCell id="pHxcztYA1CA2AjdNEvCU-14" style="edgeStyle=orthogonalEdgeStyle;rounded=0;orthogonalLoop=1;jettySize=auto;html=1;entryX=0.5;entryY=1;entryDx=0;entryDy=0;startArrow=classic;startFill=1;strokeColor=default;strokeWidth=1;" edge="1" parent="1" source="pHxcztYA1CA2AjdNEvCU-5" target="pHxcztYA1CA2AjdNEvCU-12">
          <mxGeometry relative="1" as="geometry" />
        </mxCell>
        <mxCell id="pHxcztYA1CA2AjdNEvCU-5" value="Repository" style="ellipse;whiteSpace=wrap;html=1;" vertex="1" parent="1">
          <mxGeometry x="350" y="620" width="120" height="60" as="geometry" />
        </mxCell>
        <mxCell id="pHxcztYA1CA2AjdNEvCU-10" value="" style="edgeStyle=orthogonalEdgeStyle;rounded=0;orthogonalLoop=1;jettySize=auto;html=1;startArrow=classic;startFill=1;strokeColor=default;strokeWidth=1;" edge="1" parent="1" source="pHxcztYA1CA2AjdNEvCU-7" target="pHxcztYA1CA2AjdNEvCU-9">
          <mxGeometry relative="1" as="geometry" />
        </mxCell>
        <mxCell id="pHxcztYA1CA2AjdNEvCU-7" value="BLoC" style="ellipse;whiteSpace=wrap;html=1;" vertex="1" parent="1">
          <mxGeometry x="350" y="480" width="120" height="60" as="geometry" />
        </mxCell>
        <mxCell id="pHxcztYA1CA2AjdNEvCU-9" value="View" style="ellipse;whiteSpace=wrap;html=1;" vertex="1" parent="1">
          <mxGeometry x="350" y="340" width="120" height="60" as="geometry" />
        </mxCell>
        <mxCell id="pHxcztYA1CA2AjdNEvCU-15" style="edgeStyle=orthogonalEdgeStyle;rounded=0;orthogonalLoop=1;jettySize=auto;html=1;entryX=1;entryY=0.5;entryDx=0;entryDy=0;startArrow=classic;startFill=1;strokeColor=default;strokeWidth=1;exitX=0.5;exitY=0;exitDx=0;exitDy=0;" edge="1" parent="1" source="pHxcztYA1CA2AjdNEvCU-12" target="pHxcztYA1CA2AjdNEvCU-7">
          <mxGeometry relative="1" as="geometry" />
        </mxCell>
        <mxCell id="pHxcztYA1CA2AjdNEvCU-12" value="StreamController" style="rounded=1;whiteSpace=wrap;html=1;" vertex="1" parent="1">
          <mxGeometry x="480" y="550" width="120" height="60" as="geometry" />
        </mxCell>
        <mxCell id="pHxcztYA1CA2AjdNEvCU-16" value="add Data&lt;br&gt;request to get Data" style="text;html=1;strokeColor=none;fillColor=none;align=center;verticalAlign=middle;whiteSpace=wrap;rounded=0;" vertex="1" parent="1">
          <mxGeometry x="550" y="510" width="180" height="30" as="geometry" />
        </mxCell>
        <mxCell id="pHxcztYA1CA2AjdNEvCU-20" value="give fetched data" style="text;html=1;strokeColor=none;fillColor=none;align=center;verticalAlign=middle;whiteSpace=wrap;rounded=0;" vertex="1" parent="1">
          <mxGeometry x="450" y="710" width="60" height="30" as="geometry" />
        </mxCell>
        <mxCell id="pHxcztYA1CA2AjdNEvCU-21" value="" style="endArrow=classic;html=1;rounded=0;strokeColor=default;strokeWidth=1;entryX=0.388;entryY=0.021;entryDx=0;entryDy=0;entryPerimeter=0;exitX=0.388;exitY=1.015;exitDx=0;exitDy=0;exitPerimeter=0;" edge="1" parent="1" source="pHxcztYA1CA2AjdNEvCU-5" target="pHxcztYA1CA2AjdNEvCU-2">
          <mxGeometry width="50" height="50" relative="1" as="geometry">
            <mxPoint x="380" y="750" as="sourcePoint" />
            <mxPoint x="430" y="700" as="targetPoint" />
          </mxGeometry>
        </mxCell>
        <mxCell id="pHxcztYA1CA2AjdNEvCU-22" value="request fetch data" style="text;html=1;strokeColor=none;fillColor=none;align=center;verticalAlign=middle;whiteSpace=wrap;rounded=0;" vertex="1" parent="1">
          <mxGeometry x="320" y="710" width="60" height="30" as="geometry" />
        </mxCell>
        <mxCell id="pHxcztYA1CA2AjdNEvCU-23" value="server" style="rounded=0;whiteSpace=wrap;html=1;" vertex="1" parent="1">
          <mxGeometry x="354" y="930" width="120" height="60" as="geometry" />
        </mxCell>
        <mxCell id="pHxcztYA1CA2AjdNEvCU-26" value="fetch data" style="text;html=1;strokeColor=none;fillColor=none;align=center;verticalAlign=middle;whiteSpace=wrap;rounded=0;" vertex="1" parent="1">
          <mxGeometry x="420" y="870" width="60" height="30" as="geometry" />
        </mxCell>
      </root>
    </mxGraphModel>
  </diagram>
</mxfile>
